<svg id="visual" viewBox="0 0 900 600" width="900" height="600" xmlns="http://www.w3.org/2000/svg" xmlns:xlink="http://www.w3.org/1999/xlink" version="1.1"><path d="M0 79L9.3 75C18.7 71 37.3 63 56.2 58C75 53 94 51 112.8 55C131.7 59 150.3 69 169 72C187.7 75 206.3 71 225 68C243.7 65 262.3 63 281.2 60C300 57 319 53 337.8 56C356.7 59 375.3 69 394 73C412.7 77 431.3 75 450 67C468.7 59 487.3 45 506.2 41C525 37 544 43 562.8 50C581.7 57 600.3 65 619 70C637.7 75 656.3 77 675 79C693.7 81 712.3 83 731.2 80C750 77 769 69 787.8 64C806.7 59 825.3 57 844 53C862.7 49 881.3 43 890.7 40L900 37L900 0L890.7 0C881.3 0 862.7 0 844 0C825.3 0 806.7 0 787.8 0C769 0 750 0 731.2 0C712.3 0 693.7 0 675 0C656.3 0 637.7 0 619 0C600.3 0 581.7 0 562.8 0C544 0 525 0 506.2 0C487.3 0 468.7 0 450 0C431.3 0 412.7 0 394 0C375.3 0 356.7 0 337.8 0C319 0 300 0 281.2 0C262.3 0 243.7 0 225 0C206.3 0 187.7 0 169 0C150.3 0 131.7 0 112.8 0C94 0 75 0 56.2 0C37.3 0 18.7 0 9.3 0L0 0Z" fill="#e6edf5"></path><path d="M0 205L9.3 219C18.7 233 37.3 261 56.2 259C75 257 94 225 112.8 210C131.7 195 150.3 197 169 202C187.7 207 206.3 215 225 213C243.7 211 262.3 199 281.2 189C300 179 319 171 337.8 172C356.7 173 375.3 183 394 184C412.7 185 431.3 177 450 185C468.7 193 487.3 217 506.2 213C525 209 544 177 562.8 168C581.7 159 600.3 173 619 200C637.7 227 656.3 267 675 269C693.7 271 712.3 235 731.2 215C750 195 769 191 787.8 194C806.7 197 825.3 207 844 200C862.7 193 881.3 169 890.7 157L900 145L900 35L890.7 38C881.3 41 862.7 47 844 51C825.3 55 806.7 57 787.8 62C769 67 750 75 731.2 78C712.3 81 693.7 79 675 77C656.3 75 637.7 73 619 68C600.3 63 581.7 55 562.8 48C544 41 525 35 506.2 39C487.3 43 468.7 57 450 65C431.3 73 412.7 75 394 71C375.3 67 356.7 57 337.8 54C319 51 300 55 281.2 58C262.3 61 243.7 63 225 66C206.3 69 187.7 73 169 70C150.3 67 131.7 57 112.8 53C94 49 75 51 56.2 56C37.3 61 18.7 69 9.3 73L0 77Z" fill="#d3e1fa"></path><path d="M0 331L9.3 342C18.7 353 37.3 375 56.2 373C75 371 94 345 112.8 340C131.7 335 150.3 351 169 350C187.7 349 206.3 331 225 326C243.7 321 262.3 329 281.2 337C300 345 319 353 337.8 362C356.7 371 375.3 381 394 375C412.7 369 431.3 347 450 351C468.7 355 487.3 385 506.2 395C525 405 544 395 562.8 394C581.7 393 600.3 401 619 400C637.7 399 656.3 389 675 379C693.7 369 712.3 359 731.2 360C750 361 769 373 787.8 370C806.7 367 825.3 349 844 354C862.7 359 881.3 387 890.7 401L900 415L900 143L890.7 155C881.3 167 862.7 191 844 198C825.3 205 806.7 195 787.8 192C769 189 750 193 731.2 213C712.3 233 693.7 269 675 267C656.3 265 637.7 225 619 198C600.3 171 581.7 157 562.8 166C544 175 525 207 506.2 211C487.3 215 468.7 191 450 183C431.3 175 412.7 183 394 182C375.3 181 356.7 171 337.8 170C319 169 300 177 281.2 187C262.3 197 243.7 209 225 211C206.3 213 187.7 205 169 200C150.3 195 131.7 193 112.8 208C94 223 75 255 56.2 257C37.3 259 18.7 231 9.3 217L0 203Z" fill="#c5d4fe"></path><path d="M0 457L9.3 458C18.7 459 37.3 461 56.2 456C75 451 94 439 112.8 443C131.7 447 150.3 467 169 467C187.7 467 206.3 447 225 435C243.7 423 262.3 419 281.2 425C300 431 319 447 337.8 464C356.7 481 375.3 499 394 498C412.7 497 431.3 477 450 470C468.7 463 487.3 469 506.2 472C525 475 544 475 562.8 473C581.7 471 600.3 467 619 464C637.7 461 656.3 459 675 458C693.7 457 712.3 457 731.2 458C750 459 769 461 787.8 455C806.7 449 825.3 435 844 439C862.7 443 881.3 465 890.7 476L900 487L900 413L890.7 399C881.3 385 862.7 357 844 352C825.3 347 806.7 365 787.8 368C769 371 750 359 731.2 358C712.3 357 693.7 367 675 377C656.3 387 637.7 397 619 398C600.3 399 581.7 391 562.8 392C544 393 525 403 506.2 393C487.3 383 468.7 353 450 349C431.3 345 412.7 367 394 373C375.3 379 356.7 369 337.8 360C319 351 300 343 281.2 335C262.3 327 243.7 319 225 324C206.3 329 187.7 347 169 348C150.3 349 131.7 333 112.8 338C94 343 75 369 56.2 371C37.3 373 18.7 351 9.3 340L0 329Z" fill="#bfc5ff"></path><path d="M0 511L9.3 519C18.7 527 37.3 543 56.2 542C75 541 94 523 112.8 523C131.7 523 150.3 541 169 540C187.7 539 206.3 519 225 510C243.7 501 262.3 503 281.2 509C300 515 319 525 337.8 534C356.7 543 375.3 551 394 544C412.7 537 431.3 515 450 510C468.7 505 487.3 517 506.2 524C525 531 544 533 562.8 531C581.7 529 600.3 523 619 517C637.7 511 656.3 505 675 504C693.7 503 712.3 507 731.2 511C750 515 769 519 787.8 517C806.7 515 825.3 507 844 507C862.7 507 881.3 515 890.7 519L900 523L900 485L890.7 474C881.3 463 862.7 441 844 437C825.3 433 806.7 447 787.8 453C769 459 750 457 731.2 456C712.3 455 693.7 455 675 456C656.3 457 637.7 459 619 462C600.3 465 581.7 469 562.8 471C544 473 525 473 506.2 470C487.3 467 468.7 461 450 468C431.3 475 412.7 495 394 496C375.3 497 356.7 479 337.8 462C319 445 300 429 281.2 423C262.3 417 243.7 421 225 433C206.3 445 187.7 465 169 465C150.3 465 131.7 445 112.8 441C94 437 75 449 56.2 454C37.3 459 18.7 457 9.3 456L0 455Z" fill="#c3b4ff"></path><path d="M0 601L9.3 601C18.7 601 37.3 601 56.2 601C75 601 94 601 112.8 601C131.7 601 150.3 601 169 601C187.7 601 206.3 601 225 601C243.7 601 262.3 601 281.2 601C300 601 319 601 337.8 601C356.7 601 375.3 601 394 601C412.7 601 431.3 601 450 601C468.7 601 487.3 601 506.2 601C525 601 544 601 562.8 601C581.7 601 600.3 601 619 601C637.7 601 656.3 601 675 601C693.7 601 712.3 601 731.2 601C750 601 769 601 787.8 601C806.7 601 825.3 601 844 601C862.7 601 881.3 601 890.7 601L900 601L900 521L890.7 517C881.3 513 862.7 505 844 505C825.3 505 806.7 513 787.8 515C769 517 750 513 731.2 509C712.3 505 693.7 501 675 502C656.3 503 637.7 509 619 515C600.3 521 581.7 527 562.8 529C544 531 525 529 506.2 522C487.3 515 468.7 503 450 508C431.3 513 412.7 535 394 542C375.3 549 356.7 541 337.8 532C319 523 300 513 281.2 507C262.3 501 243.7 499 225 508C206.3 517 187.7 537 169 538C150.3 539 131.7 521 112.8 521C94 521 75 539 56.2 540C37.3 541 18.7 525 9.3 517L0 509Z" fill="#cf9fff"></path></svg>