<svg id="visual" viewBox="0 0 900 600" width="900" height="600" xmlns="http://www.w3.org/2000/svg" xmlns:xlink="http://www.w3.org/1999/xlink" version="1.1"><path d="M0 97L47 97L47 73L95 73L95 79L142 79L142 127L189 127L189 67L237 67L237 103L284 103L284 61L332 61L332 85L379 85L379 49L426 49L426 85L474 85L474 61L521 61L521 85L568 85L568 85L616 85L616 61L663 61L663 49L711 49L711 49L758 49L758 97L805 97L805 97L853 97L853 55L900 55L900 67L900 0L900 0L853 0L853 0L805 0L805 0L758 0L758 0L711 0L711 0L663 0L663 0L616 0L616 0L568 0L568 0L521 0L521 0L474 0L474 0L426 0L426 0L379 0L379 0L332 0L332 0L284 0L284 0L237 0L237 0L189 0L189 0L142 0L142 0L95 0L95 0L47 0L47 0L0 0Z" fill="#4b3fff"></path><path d="M0 145L47 145L47 115L95 115L95 109L142 109L142 163L189 163L189 91L237 91L237 139L284 139L284 109L332 109L332 115L379 115L379 97L426 97L426 139L474 139L474 91L521 91L521 121L568 121L568 109L616 109L616 115L663 115L663 73L711 73L711 79L758 79L758 133L805 133L805 133L853 133L853 109L900 109L900 91L900 65L900 53L853 53L853 95L805 95L805 95L758 95L758 47L711 47L711 47L663 47L663 59L616 59L616 83L568 83L568 83L521 83L521 59L474 59L474 83L426 83L426 47L379 47L379 83L332 83L332 59L284 59L284 101L237 101L237 65L189 65L189 125L142 125L142 77L95 77L95 71L47 71L47 95L0 95Z" fill="#7157ff"></path><path d="M0 301L47 301L47 217L95 217L95 205L142 205L142 313L189 313L189 271L237 271L237 301L284 301L284 253L332 253L332 253L379 253L379 289L426 289L426 223L474 223L474 211L521 211L521 283L568 283L568 211L616 211L616 307L663 307L663 247L711 247L711 211L758 211L758 259L805 259L805 271L853 271L853 301L900 301L900 289L900 89L900 107L853 107L853 131L805 131L805 131L758 131L758 77L711 77L711 71L663 71L663 113L616 113L616 107L568 107L568 119L521 119L521 89L474 89L474 137L426 137L426 95L379 95L379 113L332 113L332 107L284 107L284 137L237 137L237 89L189 89L189 161L142 161L142 107L95 107L95 113L47 113L47 143L0 143Z" fill="#8d6eff"></path><path d="M0 349L47 349L47 265L95 265L95 247L142 247L142 349L189 349L189 307L237 307L237 331L284 331L284 301L332 301L332 295L379 295L379 319L426 319L426 259L474 259L474 247L521 247L521 313L568 313L568 253L616 253L616 355L663 355L663 289L711 289L711 253L758 253L758 295L805 295L805 295L853 295L853 343L900 343L900 331L900 287L900 299L853 299L853 269L805 269L805 257L758 257L758 209L711 209L711 245L663 245L663 305L616 305L616 209L568 209L568 281L521 281L521 209L474 209L474 221L426 221L426 287L379 287L379 251L332 251L332 251L284 251L284 299L237 299L237 269L189 269L189 311L142 311L142 203L95 203L95 215L47 215L47 299L0 299Z" fill="#a485ff"></path><path d="M0 391L47 391L47 337L95 337L95 325L142 325L142 403L189 403L189 373L237 373L237 385L284 385L284 355L332 355L332 349L379 349L379 397L426 397L426 319L474 319L474 325L521 325L521 361L568 361L568 295L616 295L616 403L663 403L663 355L711 355L711 319L758 319L758 391L805 391L805 343L853 343L853 409L900 409L900 385L900 329L900 341L853 341L853 293L805 293L805 293L758 293L758 251L711 251L711 287L663 287L663 353L616 353L616 251L568 251L568 311L521 311L521 245L474 245L474 257L426 257L426 317L379 317L379 293L332 293L332 299L284 299L284 329L237 329L237 305L189 305L189 347L142 347L142 245L95 245L95 263L47 263L47 347L0 347Z" fill="#b99dff"></path><path d="M0 439L47 439L47 373L95 373L95 367L142 367L142 427L189 427L189 403L237 403L237 439L284 439L284 385L332 385L332 373L379 373L379 421L426 421L426 343L474 343L474 385L521 385L521 421L568 421L568 337L616 337L616 457L663 457L663 415L711 415L711 361L758 361L758 427L805 427L805 373L853 373L853 439L900 439L900 433L900 383L900 407L853 407L853 341L805 341L805 389L758 389L758 317L711 317L711 353L663 353L663 401L616 401L616 293L568 293L568 359L521 359L521 323L474 323L474 317L426 317L426 395L379 395L379 347L332 347L332 353L284 353L284 383L237 383L237 371L189 371L189 401L142 401L142 323L95 323L95 335L47 335L47 389L0 389Z" fill="#ccb5ff"></path><path d="M0 505L47 505L47 535L95 535L95 517L142 517L142 535L189 535L189 493L237 493L237 547L284 547L284 517L332 517L332 523L379 523L379 499L426 499L426 493L474 493L474 499L521 499L521 535L568 535L568 517L616 517L616 547L663 547L663 505L711 505L711 529L758 529L758 547L805 547L805 505L853 505L853 541L900 541L900 511L900 431L900 437L853 437L853 371L805 371L805 425L758 425L758 359L711 359L711 413L663 413L663 455L616 455L616 335L568 335L568 419L521 419L521 383L474 383L474 341L426 341L426 419L379 419L379 371L332 371L332 383L284 383L284 437L237 437L237 401L189 401L189 425L142 425L142 365L95 365L95 371L47 371L47 437L0 437Z" fill="#decdff"></path><path d="M0 547L47 547L47 565L95 565L95 559L142 559L142 565L189 565L189 535L237 535L237 565L284 565L284 553L332 553L332 565L379 565L379 529L426 529L426 529L474 529L474 541L521 541L521 565L568 565L568 547L616 547L616 571L663 571L663 535L711 535L711 547L758 547L758 565L805 565L805 541L853 541L853 565L900 565L900 553L900 509L900 539L853 539L853 503L805 503L805 545L758 545L758 527L711 527L711 503L663 503L663 545L616 545L616 515L568 515L568 533L521 533L521 497L474 497L474 491L426 491L426 497L379 497L379 521L332 521L332 515L284 515L284 545L237 545L237 491L189 491L189 533L142 533L142 515L95 515L95 533L47 533L47 503L0 503Z" fill="#efe6ff"></path><path d="M0 601L47 601L47 601L95 601L95 601L142 601L142 601L189 601L189 601L237 601L237 601L284 601L284 601L332 601L332 601L379 601L379 601L426 601L426 601L474 601L474 601L521 601L521 601L568 601L568 601L616 601L616 601L663 601L663 601L711 601L711 601L758 601L758 601L805 601L805 601L853 601L853 601L900 601L900 601L900 551L900 563L853 563L853 539L805 539L805 563L758 563L758 545L711 545L711 533L663 533L663 569L616 569L616 545L568 545L568 563L521 563L521 539L474 539L474 527L426 527L426 527L379 527L379 563L332 563L332 551L284 551L284 563L237 563L237 533L189 533L189 563L142 563L142 557L95 557L95 563L47 563L47 545L0 545Z" fill="#ffffff"></path></svg>